# xmcd CD database file
#
# Track frame offsets:
#	150
#	32373
#	71648
#	101222
#	130953
#	155918
#	194065
#	229717
#	256761
#	298540
#	323972
#
# Disc length: 4482 seconds
#
# Revision: 0
# Processed by: cddbd v1.5.2PL0 Copyright (c) Steve Scherf et al.
# Submitted via: CDex 1.70beta2
#
DISCID=a311800b
DTITLE=Herbie Hancock - Watermelon Man, The Ultimate Hancock! - CD 1
DYEAR=2010
DGENRE=Jazz
TTITLE0=Herbie Hancock - Watermelon Man
TTITLE1=Herbie Hancock - A Tribute To Someone
TTITLE2=Herbie Hancock - And What If I Don't (1963 Digital Remaster)
TTITLE3=Herbie Hancock - A Jump Ahead
TTITLE4=Herbie Hancock - Cantaloupe Island
TTITLE5=Herbie Hancock - Oliloqui Valley
TTITLE6=Herbie Hancock - Maiden Voyage
TTITLE7=Herbie Hancock - The Eye Of The Hurricane
TTITLE8=Herbie Hancock - Dolphin Dance
TTITLE9=Herbie Hancock - The Sorcerer
TTITLE10=Herbie Hancock - Interview Herbie Hancock by Hans Mantel for NPS Radio
EXTD=YEAR: 2010
EXTT0=
EXTT1=
EXTT2=
EXTT3=
EXTT4=
EXTT5=
EXTT6=
EXTT7=
EXTT8=
EXTT9=
EXTT10=
PLAYORDER=
